<svg width="48" height="48" viewBox="0 0 48 48" fill="none" xmlns="http://www.w3.org/2000/svg">
<path fill-rule="evenodd" clip-rule="evenodd" d="M15.2285 7.62854C15.2285 5.50598 13.5015 3.77893 11.3785 3.77893C9.25598 3.77893 7.52893 5.50598 7.52893 7.62854C7.52893 9.75146 9.25598 11.4781 11.3785 11.4781C13.5015 11.4785 15.2285 9.75146 15.2285 7.62854ZM9.40393 7.62854C9.40393 6.53979 10.2898 5.65393 11.3785 5.65393C12.4677 5.65393 13.3535 6.53979 13.3535 7.62854C13.3535 8.71729 12.4677 9.60315 11.3785 9.60315C10.2898 9.60352 9.40393 8.71729 9.40393 7.62854Z" fill="black"/>
<path fill-rule="evenodd" clip-rule="evenodd" d="M37.2528 24.5629C34.8369 24.5629 32.7836 25.1649 31.5425 26.1215L28.1803 25.3729C27.676 25.2605 27.1743 25.5787 27.0615 26.0841C26.9491 26.5895 27.2673 27.0905 27.7731 27.2029L30.3501 27.7767C30.3021 27.9639 30.2765 28.1565 30.2765 28.3531C30.2765 29.6268 31.3191 30.7152 32.989 31.3949L31.4879 32.9392C31.1272 33.3105 31.1356 33.9042 31.507 34.2649C31.689 34.4421 31.9248 34.53 32.1603 34.53C32.4045 34.53 32.6488 34.4352 32.8326 34.2462L35.0504 31.9644C35.7374 32.0804 36.4761 32.1434 37.2528 32.1434C41.2299 32.1434 44.2291 30.5138 44.2291 28.3531C44.2291 26.1925 41.2299 24.5629 37.2528 24.5629V24.5629ZM37.2528 30.2684C34.1862 30.2684 32.1515 29.1156 32.1515 28.3531C32.1515 28.1935 32.2416 28.017 32.4104 27.8375C32.4393 27.8123 32.4668 27.7855 32.4921 27.7562C33.1919 27.1025 34.9241 26.4379 37.2528 26.4379C40.3195 26.4379 42.3541 27.5907 42.3541 28.3531C42.3541 29.1156 40.3195 30.2684 37.2528 30.2684Z" fill="black"/>
<path fill-rule="evenodd" clip-rule="evenodd" d="M26.1046 41.1684L27.6057 39.6237C27.9664 39.2523 27.958 38.6591 27.5867 38.298C27.2157 37.9373 26.6221 37.9457 26.261 38.317L24.0432 40.5985C23.3562 40.4824 22.6176 40.4195 21.8408 40.4195C17.8638 40.4195 14.8645 42.0491 14.8645 44.2097C14.8645 46.3704 17.8638 48 21.8408 48C25.8179 48 28.8171 46.3704 28.8171 44.2097C28.8171 42.9361 27.7745 41.8477 26.1046 41.1684V41.1684ZM21.8408 46.125C18.7742 46.125 16.7395 44.9722 16.7395 44.2097C16.7395 43.4473 18.7742 42.2945 21.8408 42.2945C24.9075 42.2945 26.9421 43.4473 26.9421 44.2097C26.9421 44.9722 24.9075 46.125 21.8408 46.125Z" fill="black"/>
<path fill-rule="evenodd" clip-rule="evenodd" d="M20.451 25.5725C20.5199 25.5879 20.588 25.5952 20.6558 25.5952C21.0853 25.5952 21.4728 25.2979 21.5698 24.8613C21.6823 24.356 21.364 23.855 20.8586 23.7426L18.2812 23.1683C18.3296 22.9812 18.3549 22.7889 18.3549 22.5919C18.3549 20.8352 16.4008 19.6487 14.1625 19.1151L18.3457 10.7366C18.3523 10.723 18.3589 10.7091 18.3651 10.6952C18.791 9.72583 19.0071 8.69421 19.0071 7.62854C19.0071 3.42224 15.5852 0 11.3785 0C7.17224 0 3.75 3.42224 3.75 7.62854C3.75 8.69385 3.96606 9.72546 4.39233 10.6952C4.39819 10.7091 4.40479 10.723 4.41174 10.7366L8.599 19.1235C6.35486 19.6699 4.40222 20.8568 4.40222 22.5923C4.40222 24.7529 7.40149 26.3822 11.3785 26.3822C13.7944 26.3822 15.8481 25.7802 17.0892 24.824L20.451 25.5725ZM5.625 7.62854C5.625 4.45605 8.20605 1.875 11.3785 1.875C14.551 1.875 17.1321 4.45605 17.1321 7.62854C17.1321 8.42542 16.9724 9.19629 16.6575 9.92029L11.3785 20.4935L6.09998 9.92029C5.78467 9.19592 5.625 8.42505 5.625 7.62854ZM6.27722 22.5923C6.27722 22.0997 7.49817 21.2435 9.46216 20.8524L10.5399 23.0109C10.6985 23.3287 11.0233 23.5294 11.3785 23.5294C11.7338 23.5294 12.0586 23.3287 12.2175 23.0109L13.2979 20.8466C15.2842 21.2234 16.4799 22.0774 16.4799 22.5919C16.4799 22.752 16.389 22.9292 16.2195 23.1094C16.1909 23.1346 16.1638 23.161 16.1385 23.1896C15.4387 23.8429 13.7065 24.5072 11.3785 24.5072C8.31189 24.5072 6.27722 23.3547 6.27722 22.5923V22.5923Z" fill="black"/>
<path fill-rule="evenodd" clip-rule="evenodd" d="M29.5466 35.3441C29.0303 35.3441 28.6091 35.7649 28.6091 36.2816C28.6091 36.798 29.0303 37.2191 29.5466 37.2191C30.063 37.2191 30.4841 36.798 30.4841 36.2816C30.4841 35.7649 30.063 35.3441 29.5466 35.3441Z" fill="black"/>
<path fill-rule="evenodd" clip-rule="evenodd" d="M24.3157 26.41C24.832 26.41 25.2532 25.9889 25.2532 25.4725C25.2532 24.9562 24.832 24.535 24.3157 24.535C23.7993 24.535 23.3782 24.9562 23.3782 25.4725C23.3782 25.9889 23.7993 26.41 24.3157 26.41Z" fill="black"/>
</svg>
